<mxfile host="app.diagrams.net" modified="2023-02-15T10:27:59.918Z" agent="5.0 (Macintosh; Intel Mac OS X 10_15_7) AppleWebKit/537.36 (KHTML, like Gecko) Chrome/109.0.0.0 Safari/537.36" etag="AFhh-FXxE3UbUZA-Gkpj" version="20.8.20" type="github">
  <diagram name="第 1 页" id="t0YDXasAVQzw6XlOVVky">
    <mxGraphModel dx="1687" dy="822" grid="1" gridSize="10" guides="1" tooltips="1" connect="1" arrows="1" fold="1" page="1" pageScale="1" pageWidth="827" pageHeight="1169" math="0" shadow="0">
      <root>
        <mxCell id="0" />
        <mxCell id="1" parent="0" />
        <mxCell id="OCCVNIKUNNy0YEpXd0rj-8" style="edgeStyle=orthogonalEdgeStyle;rounded=0;orthogonalLoop=1;jettySize=auto;html=1;exitX=0.5;exitY=1;exitDx=0;exitDy=0;exitPerimeter=0;entryX=0.5;entryY=0;entryDx=0;entryDy=0;" edge="1" parent="1" source="OCCVNIKUNNy0YEpXd0rj-1" target="OCCVNIKUNNy0YEpXd0rj-5">
          <mxGeometry relative="1" as="geometry" />
        </mxCell>
        <mxCell id="OCCVNIKUNNy0YEpXd0rj-1" value="开始" style="strokeWidth=2;html=1;shape=mxgraph.flowchart.terminator;whiteSpace=wrap;" vertex="1" parent="1">
          <mxGeometry x="160" y="30" width="160" height="50" as="geometry" />
        </mxCell>
        <mxCell id="OCCVNIKUNNy0YEpXd0rj-30" style="edgeStyle=orthogonalEdgeStyle;rounded=0;orthogonalLoop=1;jettySize=auto;html=1;exitX=0.5;exitY=1;exitDx=0;exitDy=0;entryX=0.5;entryY=0;entryDx=0;entryDy=0;" edge="1" parent="1" source="OCCVNIKUNNy0YEpXd0rj-5" target="OCCVNIKUNNy0YEpXd0rj-29">
          <mxGeometry relative="1" as="geometry" />
        </mxCell>
        <mxCell id="OCCVNIKUNNy0YEpXd0rj-5" value="&amp;nbsp; &amp;nbsp; &amp;nbsp; &amp;nbsp; &amp;nbsp; &amp;nbsp; &amp;nbsp; &amp;nbsp; &amp;nbsp; &amp;nbsp; &amp;nbsp; &amp;nbsp; &amp;nbsp;&lt;br&gt;&amp;nbsp; &amp;nbsp; &amp;nbsp; &amp;nbsp; &amp;nbsp; &amp;nbsp; &amp;nbsp; &amp;nbsp; &amp;nbsp; &amp;nbsp; &amp;nbsp; &amp;nbsp; &amp;nbsp; 【用户】【可选步骤】设置 ShardingKey。&lt;br&gt;&lt;blockquote style=&quot;margin: 0 0 0 40px; border: none; padding: 0px;&quot;&gt;&amp;nbsp; &amp;nbsp; &amp;nbsp; &amp;nbsp; &amp;nbsp; &amp;nbsp;&amp;nbsp;&lt;/blockquote&gt;&lt;blockquote style=&quot;margin: 0 0 0 40px; border: none; padding: 0px;&quot;&gt;&amp;nbsp; &amp;nbsp; &amp;nbsp; &amp;nbsp; &amp;nbsp; &amp;nbsp;client.setShardingKeyValues(&lt;br&gt;&amp;nbsp; &amp;nbsp; &amp;nbsp; &amp;nbsp; &amp;nbsp; &amp;nbsp; &amp;nbsp; &amp;nbsp; ShardingKeyValue.ofUserId(&quot;user-id&quot;),&lt;br&gt;&amp;nbsp; &amp;nbsp; &amp;nbsp; &amp;nbsp; &amp;nbsp; &amp;nbsp; &amp;nbsp; &amp;nbsp; ShardingKeyValue.ofRequestFrom(&quot;from&quot;)&lt;br&gt;&lt;span style=&quot;background-color: initial;&quot;&gt;&amp;nbsp; &amp;nbsp; &amp;nbsp; &amp;nbsp; &amp;nbsp; &amp;nbsp; &amp;nbsp;);&lt;/span&gt;&lt;/blockquote&gt;&lt;blockquote style=&quot;margin: 0 0 0 40px; border: none; padding: 0px;&quot;&gt;&lt;span style=&quot;background-color: initial;&quot;&gt;&lt;br&gt;&lt;/span&gt;&lt;/blockquote&gt;" style="rounded=1;whiteSpace=wrap;html=1;absoluteArcSize=1;arcSize=14;strokeWidth=2;align=left;" vertex="1" parent="1">
          <mxGeometry x="60" y="110" width="360" height="100" as="geometry" />
        </mxCell>
        <mxCell id="OCCVNIKUNNy0YEpXd0rj-23" style="edgeStyle=orthogonalEdgeStyle;rounded=0;orthogonalLoop=1;jettySize=auto;html=1;exitX=1;exitY=0.5;exitDx=0;exitDy=0;entryX=0;entryY=0.5;entryDx=0;entryDy=0;" edge="1" parent="1" source="OCCVNIKUNNy0YEpXd0rj-6" target="OCCVNIKUNNy0YEpXd0rj-16">
          <mxGeometry relative="1" as="geometry">
            <mxPoint x="570" y="1036" as="targetPoint" />
          </mxGeometry>
        </mxCell>
        <mxCell id="OCCVNIKUNNy0YEpXd0rj-6" value="【SOA】使用 ShardingKeyValues 执行 UCS 策略" style="rounded=1;whiteSpace=wrap;html=1;absoluteArcSize=1;arcSize=14;strokeWidth=2;" vertex="1" parent="1">
          <mxGeometry x="60" y="960" width="360" height="100" as="geometry" />
        </mxCell>
        <mxCell id="OCCVNIKUNNy0YEpXd0rj-12" style="edgeStyle=orthogonalEdgeStyle;rounded=0;orthogonalLoop=1;jettySize=auto;html=1;exitX=0.5;exitY=1;exitDx=0;exitDy=0;exitPerimeter=0;entryX=0.5;entryY=0;entryDx=0;entryDy=0;entryPerimeter=0;" edge="1" parent="1" source="OCCVNIKUNNy0YEpXd0rj-7" target="OCCVNIKUNNy0YEpXd0rj-11">
          <mxGeometry relative="1" as="geometry" />
        </mxCell>
        <mxCell id="OCCVNIKUNNy0YEpXd0rj-21" value="是" style="edgeLabel;html=1;align=center;verticalAlign=middle;resizable=0;points=[];" vertex="1" connectable="0" parent="OCCVNIKUNNy0YEpXd0rj-12">
          <mxGeometry x="-0.175" y="1" relative="1" as="geometry">
            <mxPoint x="-1" y="-1" as="offset" />
          </mxGeometry>
        </mxCell>
        <mxCell id="OCCVNIKUNNy0YEpXd0rj-7" value="【SOA】服务是否关联了 UCS 策略" style="strokeWidth=2;html=1;shape=mxgraph.flowchart.decision;whiteSpace=wrap;" vertex="1" parent="1">
          <mxGeometry x="80" y="520" width="320" height="100" as="geometry" />
        </mxCell>
        <mxCell id="OCCVNIKUNNy0YEpXd0rj-18" value="否" style="edgeStyle=orthogonalEdgeStyle;rounded=0;orthogonalLoop=1;jettySize=auto;html=1;exitX=0.5;exitY=1;exitDx=0;exitDy=0;exitPerimeter=0;entryX=0.5;entryY=0;entryDx=0;entryDy=0;" edge="1" parent="1" source="OCCVNIKUNNy0YEpXd0rj-11" target="OCCVNIKUNNy0YEpXd0rj-13">
          <mxGeometry relative="1" as="geometry" />
        </mxCell>
        <mxCell id="OCCVNIKUNNy0YEpXd0rj-20" value="是" style="edgeStyle=orthogonalEdgeStyle;rounded=0;orthogonalLoop=1;jettySize=auto;html=1;exitX=0;exitY=0.5;exitDx=0;exitDy=0;exitPerimeter=0;entryX=0;entryY=0.5;entryDx=0;entryDy=0;" edge="1" parent="1" source="OCCVNIKUNNy0YEpXd0rj-11" target="OCCVNIKUNNy0YEpXd0rj-6">
          <mxGeometry relative="1" as="geometry">
            <Array as="points">
              <mxPoint x="20" y="716" />
              <mxPoint x="20" y="1036" />
            </Array>
          </mxGeometry>
        </mxCell>
        <mxCell id="OCCVNIKUNNy0YEpXd0rj-11" value="【SOA】用户是否设置了ShardingKeyValues" style="strokeWidth=2;html=1;shape=mxgraph.flowchart.decision;whiteSpace=wrap;" vertex="1" parent="1">
          <mxGeometry x="80" y="666" width="320" height="100" as="geometry" />
        </mxCell>
        <mxCell id="OCCVNIKUNNy0YEpXd0rj-19" style="edgeStyle=orthogonalEdgeStyle;rounded=0;orthogonalLoop=1;jettySize=auto;html=1;exitX=0.5;exitY=1;exitDx=0;exitDy=0;entryX=0.5;entryY=0;entryDx=0;entryDy=0;" edge="1" parent="1" source="OCCVNIKUNNy0YEpXd0rj-13" target="OCCVNIKUNNy0YEpXd0rj-6">
          <mxGeometry relative="1" as="geometry" />
        </mxCell>
        <mxCell id="OCCVNIKUNNy0YEpXd0rj-22" style="edgeStyle=orthogonalEdgeStyle;rounded=0;orthogonalLoop=1;jettySize=auto;html=1;exitX=1;exitY=0.5;exitDx=0;exitDy=0;entryX=0;entryY=0.5;entryDx=0;entryDy=0;" edge="1" parent="1" source="OCCVNIKUNNy0YEpXd0rj-13" target="OCCVNIKUNNy0YEpXd0rj-16">
          <mxGeometry relative="1" as="geometry" />
        </mxCell>
        <mxCell id="OCCVNIKUNNy0YEpXd0rj-13" value="【SOA】从&amp;nbsp; UCS 请求上下文中获取 ShardingKeyValues&lt;br&gt;&lt;br&gt;ucsClient.getCurrentRequestContext()" style="rounded=1;whiteSpace=wrap;html=1;absoluteArcSize=1;arcSize=14;strokeWidth=2;" vertex="1" parent="1">
          <mxGeometry x="60" y="816" width="360" height="100" as="geometry" />
        </mxCell>
        <mxCell id="OCCVNIKUNNy0YEpXd0rj-25" style="edgeStyle=orthogonalEdgeStyle;rounded=0;orthogonalLoop=1;jettySize=auto;html=1;exitX=0.5;exitY=0;exitDx=0;exitDy=0;entryX=0.5;entryY=1;entryDx=0;entryDy=0;entryPerimeter=0;" edge="1" parent="1" source="OCCVNIKUNNy0YEpXd0rj-16" target="OCCVNIKUNNy0YEpXd0rj-24">
          <mxGeometry relative="1" as="geometry" />
        </mxCell>
        <mxCell id="OCCVNIKUNNy0YEpXd0rj-16" value="【UCS】执行 UCS 策略" style="rounded=1;whiteSpace=wrap;html=1;absoluteArcSize=1;arcSize=14;strokeWidth=2;" vertex="1" parent="1">
          <mxGeometry x="570" y="896" width="360" height="100" as="geometry" />
        </mxCell>
        <mxCell id="OCCVNIKUNNy0YEpXd0rj-24" value="【SOA】UCS 是否返回了有效值" style="strokeWidth=2;html=1;shape=mxgraph.flowchart.decision;whiteSpace=wrap;" vertex="1" parent="1">
          <mxGeometry x="590" y="746" width="320" height="100" as="geometry" />
        </mxCell>
        <mxCell id="OCCVNIKUNNy0YEpXd0rj-32" style="edgeStyle=orthogonalEdgeStyle;rounded=0;orthogonalLoop=1;jettySize=auto;html=1;exitX=0.5;exitY=1;exitDx=0;exitDy=0;entryX=0.5;entryY=0;entryDx=0;entryDy=0;entryPerimeter=0;" edge="1" parent="1" source="OCCVNIKUNNy0YEpXd0rj-28" target="OCCVNIKUNNy0YEpXd0rj-7">
          <mxGeometry relative="1" as="geometry" />
        </mxCell>
        <mxCell id="OCCVNIKUNNy0YEpXd0rj-28" value="【SOA】选择 SOA 路由" style="rounded=1;whiteSpace=wrap;html=1;absoluteArcSize=1;arcSize=14;strokeWidth=2;" vertex="1" parent="1">
          <mxGeometry x="60" y="390" width="360" height="100" as="geometry" />
        </mxCell>
        <mxCell id="OCCVNIKUNNy0YEpXd0rj-31" style="edgeStyle=orthogonalEdgeStyle;rounded=0;orthogonalLoop=1;jettySize=auto;html=1;exitX=0.5;exitY=1;exitDx=0;exitDy=0;entryX=0.5;entryY=0;entryDx=0;entryDy=0;" edge="1" parent="1" source="OCCVNIKUNNy0YEpXd0rj-29" target="OCCVNIKUNNy0YEpXd0rj-28">
          <mxGeometry relative="1" as="geometry" />
        </mxCell>
        <mxCell id="OCCVNIKUNNy0YEpXd0rj-29" value="【用户】发起 SOA 调用" style="rounded=1;whiteSpace=wrap;html=1;absoluteArcSize=1;arcSize=14;strokeWidth=2;" vertex="1" parent="1">
          <mxGeometry x="60" y="250" width="360" height="100" as="geometry" />
        </mxCell>
      </root>
    </mxGraphModel>
  </diagram>
</mxfile>
